<mxfile host="app.diagrams.net" modified="2023-12-02T10:13:15.490Z" agent="Mozilla/5.0 (Windows NT 10.0; Win64; x64) AppleWebKit/537.36 (KHTML, like Gecko) Chrome/114.0.0.0 Safari/537.36" etag="ZKs14Su6t7yZsXazbm1X" version="22.1.5" type="github">
  <diagram id="R2lEEEUBdFMjLlhIrx00" name="Page-1">
    <mxGraphModel dx="880" dy="452" grid="1" gridSize="10" guides="1" tooltips="1" connect="1" arrows="1" fold="1" page="1" pageScale="1" pageWidth="850" pageHeight="1100" math="0" shadow="0" extFonts="Permanent Marker^https://fonts.googleapis.com/css?family=Permanent+Marker">
      <root>
        <mxCell id="0" />
        <mxCell id="1" parent="0" />
        <mxCell id="C-vyLk0tnHw3VtMMgP7b-2" value="STUDENT" style="shape=table;startSize=30;container=1;collapsible=1;childLayout=tableLayout;fixedRows=1;rowLines=0;fontStyle=1;align=center;resizeLast=1;" parent="1" vertex="1">
          <mxGeometry x="270" y="40" width="205" height="120" as="geometry" />
        </mxCell>
        <mxCell id="C-vyLk0tnHw3VtMMgP7b-3" value="" style="shape=partialRectangle;collapsible=0;dropTarget=0;pointerEvents=0;fillColor=none;points=[[0,0.5],[1,0.5]];portConstraint=eastwest;top=0;left=0;right=0;bottom=1;" parent="C-vyLk0tnHw3VtMMgP7b-2" vertex="1">
          <mxGeometry y="30" width="205" height="30" as="geometry" />
        </mxCell>
        <mxCell id="C-vyLk0tnHw3VtMMgP7b-4" value="PK" style="shape=partialRectangle;overflow=hidden;connectable=0;fillColor=none;top=0;left=0;bottom=0;right=0;fontStyle=1;" parent="C-vyLk0tnHw3VtMMgP7b-3" vertex="1">
          <mxGeometry width="30" height="30" as="geometry">
            <mxRectangle width="30" height="30" as="alternateBounds" />
          </mxGeometry>
        </mxCell>
        <mxCell id="C-vyLk0tnHw3VtMMgP7b-5" value="student_id" style="shape=partialRectangle;overflow=hidden;connectable=0;fillColor=none;top=0;left=0;bottom=0;right=0;align=left;spacingLeft=6;fontStyle=5;" parent="C-vyLk0tnHw3VtMMgP7b-3" vertex="1">
          <mxGeometry x="30" width="175" height="30" as="geometry">
            <mxRectangle width="175" height="30" as="alternateBounds" />
          </mxGeometry>
        </mxCell>
        <mxCell id="C-vyLk0tnHw3VtMMgP7b-6" value="" style="shape=partialRectangle;collapsible=0;dropTarget=0;pointerEvents=0;fillColor=none;points=[[0,0.5],[1,0.5]];portConstraint=eastwest;top=0;left=0;right=0;bottom=0;" parent="C-vyLk0tnHw3VtMMgP7b-2" vertex="1">
          <mxGeometry y="60" width="205" height="30" as="geometry" />
        </mxCell>
        <mxCell id="C-vyLk0tnHw3VtMMgP7b-7" value="" style="shape=partialRectangle;overflow=hidden;connectable=0;fillColor=none;top=0;left=0;bottom=0;right=0;" parent="C-vyLk0tnHw3VtMMgP7b-6" vertex="1">
          <mxGeometry width="30" height="30" as="geometry">
            <mxRectangle width="30" height="30" as="alternateBounds" />
          </mxGeometry>
        </mxCell>
        <mxCell id="C-vyLk0tnHw3VtMMgP7b-8" value="student_name" style="shape=partialRectangle;overflow=hidden;connectable=0;fillColor=none;top=0;left=0;bottom=0;right=0;align=left;spacingLeft=6;" parent="C-vyLk0tnHw3VtMMgP7b-6" vertex="1">
          <mxGeometry x="30" width="175" height="30" as="geometry">
            <mxRectangle width="175" height="30" as="alternateBounds" />
          </mxGeometry>
        </mxCell>
        <mxCell id="C-vyLk0tnHw3VtMMgP7b-9" value="" style="shape=partialRectangle;collapsible=0;dropTarget=0;pointerEvents=0;fillColor=none;points=[[0,0.5],[1,0.5]];portConstraint=eastwest;top=0;left=0;right=0;bottom=0;" parent="C-vyLk0tnHw3VtMMgP7b-2" vertex="1">
          <mxGeometry y="90" width="205" height="30" as="geometry" />
        </mxCell>
        <mxCell id="C-vyLk0tnHw3VtMMgP7b-10" value="" style="shape=partialRectangle;overflow=hidden;connectable=0;fillColor=none;top=0;left=0;bottom=0;right=0;" parent="C-vyLk0tnHw3VtMMgP7b-9" vertex="1">
          <mxGeometry width="30" height="30" as="geometry">
            <mxRectangle width="30" height="30" as="alternateBounds" />
          </mxGeometry>
        </mxCell>
        <mxCell id="C-vyLk0tnHw3VtMMgP7b-11" value="student_address" style="shape=partialRectangle;overflow=hidden;connectable=0;fillColor=none;top=0;left=0;bottom=0;right=0;align=left;spacingLeft=6;" parent="C-vyLk0tnHw3VtMMgP7b-9" vertex="1">
          <mxGeometry x="30" width="175" height="30" as="geometry">
            <mxRectangle width="175" height="30" as="alternateBounds" />
          </mxGeometry>
        </mxCell>
        <mxCell id="AvvDkr2C4oICKI2uUngF-2" value="SEAT" style="shape=table;startSize=30;container=1;collapsible=1;childLayout=tableLayout;fixedRows=1;rowLines=0;fontStyle=1;align=center;resizeLast=1;" vertex="1" parent="1">
          <mxGeometry x="550" y="40" width="205" height="120" as="geometry" />
        </mxCell>
        <mxCell id="AvvDkr2C4oICKI2uUngF-3" value="" style="shape=partialRectangle;collapsible=0;dropTarget=0;pointerEvents=0;fillColor=none;points=[[0,0.5],[1,0.5]];portConstraint=eastwest;top=0;left=0;right=0;bottom=1;" vertex="1" parent="AvvDkr2C4oICKI2uUngF-2">
          <mxGeometry y="30" width="205" height="30" as="geometry" />
        </mxCell>
        <mxCell id="AvvDkr2C4oICKI2uUngF-4" value="PK" style="shape=partialRectangle;overflow=hidden;connectable=0;fillColor=none;top=0;left=0;bottom=0;right=0;fontStyle=1;" vertex="1" parent="AvvDkr2C4oICKI2uUngF-3">
          <mxGeometry width="30" height="30" as="geometry">
            <mxRectangle width="30" height="30" as="alternateBounds" />
          </mxGeometry>
        </mxCell>
        <mxCell id="AvvDkr2C4oICKI2uUngF-5" value="seat_no" style="shape=partialRectangle;overflow=hidden;connectable=0;fillColor=none;top=0;left=0;bottom=0;right=0;align=left;spacingLeft=6;fontStyle=5;" vertex="1" parent="AvvDkr2C4oICKI2uUngF-3">
          <mxGeometry x="30" width="175" height="30" as="geometry">
            <mxRectangle width="175" height="30" as="alternateBounds" />
          </mxGeometry>
        </mxCell>
        <mxCell id="AvvDkr2C4oICKI2uUngF-6" value="" style="shape=partialRectangle;collapsible=0;dropTarget=0;pointerEvents=0;fillColor=none;points=[[0,0.5],[1,0.5]];portConstraint=eastwest;top=0;left=0;right=0;bottom=0;" vertex="1" parent="AvvDkr2C4oICKI2uUngF-2">
          <mxGeometry y="60" width="205" height="30" as="geometry" />
        </mxCell>
        <mxCell id="AvvDkr2C4oICKI2uUngF-7" value="" style="shape=partialRectangle;overflow=hidden;connectable=0;fillColor=none;top=0;left=0;bottom=0;right=0;" vertex="1" parent="AvvDkr2C4oICKI2uUngF-6">
          <mxGeometry width="30" height="30" as="geometry">
            <mxRectangle width="30" height="30" as="alternateBounds" />
          </mxGeometry>
        </mxCell>
        <mxCell id="AvvDkr2C4oICKI2uUngF-8" value="seat_position" style="shape=partialRectangle;overflow=hidden;connectable=0;fillColor=none;top=0;left=0;bottom=0;right=0;align=left;spacingLeft=6;" vertex="1" parent="AvvDkr2C4oICKI2uUngF-6">
          <mxGeometry x="30" width="175" height="30" as="geometry">
            <mxRectangle width="175" height="30" as="alternateBounds" />
          </mxGeometry>
        </mxCell>
        <mxCell id="AvvDkr2C4oICKI2uUngF-9" value="" style="shape=partialRectangle;collapsible=0;dropTarget=0;pointerEvents=0;fillColor=none;points=[[0,0.5],[1,0.5]];portConstraint=eastwest;top=0;left=0;right=0;bottom=0;" vertex="1" parent="AvvDkr2C4oICKI2uUngF-2">
          <mxGeometry y="90" width="205" height="30" as="geometry" />
        </mxCell>
        <mxCell id="AvvDkr2C4oICKI2uUngF-10" value="" style="shape=partialRectangle;overflow=hidden;connectable=0;fillColor=none;top=0;left=0;bottom=0;right=0;" vertex="1" parent="AvvDkr2C4oICKI2uUngF-9">
          <mxGeometry width="30" height="30" as="geometry">
            <mxRectangle width="30" height="30" as="alternateBounds" />
          </mxGeometry>
        </mxCell>
        <mxCell id="AvvDkr2C4oICKI2uUngF-11" value="" style="shape=partialRectangle;overflow=hidden;connectable=0;fillColor=none;top=0;left=0;bottom=0;right=0;align=left;spacingLeft=6;" vertex="1" parent="AvvDkr2C4oICKI2uUngF-9">
          <mxGeometry x="30" width="175" height="30" as="geometry">
            <mxRectangle width="175" height="30" as="alternateBounds" />
          </mxGeometry>
        </mxCell>
        <mxCell id="AvvDkr2C4oICKI2uUngF-12" value="INSTRUCTOR" style="shape=table;startSize=30;container=1;collapsible=1;childLayout=tableLayout;fixedRows=1;rowLines=0;fontStyle=1;align=center;resizeLast=1;" vertex="1" parent="1">
          <mxGeometry x="20" y="290" width="205" height="120" as="geometry" />
        </mxCell>
        <mxCell id="AvvDkr2C4oICKI2uUngF-13" value="" style="shape=partialRectangle;collapsible=0;dropTarget=0;pointerEvents=0;fillColor=none;points=[[0,0.5],[1,0.5]];portConstraint=eastwest;top=0;left=0;right=0;bottom=1;" vertex="1" parent="AvvDkr2C4oICKI2uUngF-12">
          <mxGeometry y="30" width="205" height="30" as="geometry" />
        </mxCell>
        <mxCell id="AvvDkr2C4oICKI2uUngF-14" value="PK" style="shape=partialRectangle;overflow=hidden;connectable=0;fillColor=none;top=0;left=0;bottom=0;right=0;fontStyle=1;" vertex="1" parent="AvvDkr2C4oICKI2uUngF-13">
          <mxGeometry width="30" height="30" as="geometry">
            <mxRectangle width="30" height="30" as="alternateBounds" />
          </mxGeometry>
        </mxCell>
        <mxCell id="AvvDkr2C4oICKI2uUngF-15" value="instructor_no" style="shape=partialRectangle;overflow=hidden;connectable=0;fillColor=none;top=0;left=0;bottom=0;right=0;align=left;spacingLeft=6;fontStyle=5;" vertex="1" parent="AvvDkr2C4oICKI2uUngF-13">
          <mxGeometry x="30" width="175" height="30" as="geometry">
            <mxRectangle width="175" height="30" as="alternateBounds" />
          </mxGeometry>
        </mxCell>
        <mxCell id="AvvDkr2C4oICKI2uUngF-16" value="" style="shape=partialRectangle;collapsible=0;dropTarget=0;pointerEvents=0;fillColor=none;points=[[0,0.5],[1,0.5]];portConstraint=eastwest;top=0;left=0;right=0;bottom=0;" vertex="1" parent="AvvDkr2C4oICKI2uUngF-12">
          <mxGeometry y="60" width="205" height="30" as="geometry" />
        </mxCell>
        <mxCell id="AvvDkr2C4oICKI2uUngF-17" value="" style="shape=partialRectangle;overflow=hidden;connectable=0;fillColor=none;top=0;left=0;bottom=0;right=0;" vertex="1" parent="AvvDkr2C4oICKI2uUngF-16">
          <mxGeometry width="30" height="30" as="geometry">
            <mxRectangle width="30" height="30" as="alternateBounds" />
          </mxGeometry>
        </mxCell>
        <mxCell id="AvvDkr2C4oICKI2uUngF-18" value="instructor_name" style="shape=partialRectangle;overflow=hidden;connectable=0;fillColor=none;top=0;left=0;bottom=0;right=0;align=left;spacingLeft=6;" vertex="1" parent="AvvDkr2C4oICKI2uUngF-16">
          <mxGeometry x="30" width="175" height="30" as="geometry">
            <mxRectangle width="175" height="30" as="alternateBounds" />
          </mxGeometry>
        </mxCell>
        <mxCell id="AvvDkr2C4oICKI2uUngF-19" value="" style="shape=partialRectangle;collapsible=0;dropTarget=0;pointerEvents=0;fillColor=none;points=[[0,0.5],[1,0.5]];portConstraint=eastwest;top=0;left=0;right=0;bottom=0;" vertex="1" parent="AvvDkr2C4oICKI2uUngF-12">
          <mxGeometry y="90" width="205" height="30" as="geometry" />
        </mxCell>
        <mxCell id="AvvDkr2C4oICKI2uUngF-20" value="" style="shape=partialRectangle;overflow=hidden;connectable=0;fillColor=none;top=0;left=0;bottom=0;right=0;" vertex="1" parent="AvvDkr2C4oICKI2uUngF-19">
          <mxGeometry width="30" height="30" as="geometry">
            <mxRectangle width="30" height="30" as="alternateBounds" />
          </mxGeometry>
        </mxCell>
        <mxCell id="AvvDkr2C4oICKI2uUngF-21" value="Instructor_faculty" style="shape=partialRectangle;overflow=hidden;connectable=0;fillColor=none;top=0;left=0;bottom=0;right=0;align=left;spacingLeft=6;" vertex="1" parent="AvvDkr2C4oICKI2uUngF-19">
          <mxGeometry x="30" width="175" height="30" as="geometry">
            <mxRectangle width="175" height="30" as="alternateBounds" />
          </mxGeometry>
        </mxCell>
        <mxCell id="AvvDkr2C4oICKI2uUngF-22" value="COURSE" style="shape=table;startSize=30;container=1;collapsible=1;childLayout=tableLayout;fixedRows=1;rowLines=0;fontStyle=1;align=center;resizeLast=1;" vertex="1" parent="1">
          <mxGeometry x="270" y="190" width="205" height="120" as="geometry" />
        </mxCell>
        <mxCell id="AvvDkr2C4oICKI2uUngF-23" value="" style="shape=partialRectangle;collapsible=0;dropTarget=0;pointerEvents=0;fillColor=none;points=[[0,0.5],[1,0.5]];portConstraint=eastwest;top=0;left=0;right=0;bottom=1;" vertex="1" parent="AvvDkr2C4oICKI2uUngF-22">
          <mxGeometry y="30" width="205" height="30" as="geometry" />
        </mxCell>
        <mxCell id="AvvDkr2C4oICKI2uUngF-24" value="PK" style="shape=partialRectangle;overflow=hidden;connectable=0;fillColor=none;top=0;left=0;bottom=0;right=0;fontStyle=1;" vertex="1" parent="AvvDkr2C4oICKI2uUngF-23">
          <mxGeometry width="57" height="30" as="geometry">
            <mxRectangle width="57" height="30" as="alternateBounds" />
          </mxGeometry>
        </mxCell>
        <mxCell id="AvvDkr2C4oICKI2uUngF-25" value="course_id" style="shape=partialRectangle;overflow=hidden;connectable=0;fillColor=none;top=0;left=0;bottom=0;right=0;align=left;spacingLeft=6;fontStyle=5;" vertex="1" parent="AvvDkr2C4oICKI2uUngF-23">
          <mxGeometry x="57" width="148" height="30" as="geometry">
            <mxRectangle width="148" height="30" as="alternateBounds" />
          </mxGeometry>
        </mxCell>
        <mxCell id="AvvDkr2C4oICKI2uUngF-26" value="" style="shape=partialRectangle;collapsible=0;dropTarget=0;pointerEvents=0;fillColor=none;points=[[0,0.5],[1,0.5]];portConstraint=eastwest;top=0;left=0;right=0;bottom=0;" vertex="1" parent="AvvDkr2C4oICKI2uUngF-22">
          <mxGeometry y="60" width="205" height="30" as="geometry" />
        </mxCell>
        <mxCell id="AvvDkr2C4oICKI2uUngF-27" value="PK" style="shape=partialRectangle;overflow=hidden;connectable=0;fillColor=none;top=0;left=0;bottom=0;right=0;fontStyle=1" vertex="1" parent="AvvDkr2C4oICKI2uUngF-26">
          <mxGeometry width="57" height="30" as="geometry">
            <mxRectangle width="57" height="30" as="alternateBounds" />
          </mxGeometry>
        </mxCell>
        <mxCell id="AvvDkr2C4oICKI2uUngF-28" value="course_name" style="shape=partialRectangle;overflow=hidden;connectable=0;fillColor=none;top=0;left=0;bottom=0;right=0;align=left;spacingLeft=6;fontStyle=5" vertex="1" parent="AvvDkr2C4oICKI2uUngF-26">
          <mxGeometry x="57" width="148" height="30" as="geometry">
            <mxRectangle width="148" height="30" as="alternateBounds" />
          </mxGeometry>
        </mxCell>
        <mxCell id="AvvDkr2C4oICKI2uUngF-29" value="" style="shape=partialRectangle;collapsible=0;dropTarget=0;pointerEvents=0;fillColor=none;points=[[0,0.5],[1,0.5]];portConstraint=eastwest;top=0;left=0;right=0;bottom=0;" vertex="1" parent="AvvDkr2C4oICKI2uUngF-22">
          <mxGeometry y="90" width="205" height="30" as="geometry" />
        </mxCell>
        <mxCell id="AvvDkr2C4oICKI2uUngF-30" value="" style="shape=partialRectangle;overflow=hidden;connectable=0;fillColor=none;top=0;left=0;bottom=0;right=0;" vertex="1" parent="AvvDkr2C4oICKI2uUngF-29">
          <mxGeometry width="57" height="30" as="geometry">
            <mxRectangle width="57" height="30" as="alternateBounds" />
          </mxGeometry>
        </mxCell>
        <mxCell id="AvvDkr2C4oICKI2uUngF-31" value="course_number" style="shape=partialRectangle;overflow=hidden;connectable=0;fillColor=none;top=0;left=0;bottom=0;right=0;align=left;spacingLeft=6;" vertex="1" parent="AvvDkr2C4oICKI2uUngF-29">
          <mxGeometry x="57" width="148" height="30" as="geometry">
            <mxRectangle width="148" height="30" as="alternateBounds" />
          </mxGeometry>
        </mxCell>
        <mxCell id="AvvDkr2C4oICKI2uUngF-32" value="SECTION" style="shape=table;startSize=30;container=1;collapsible=1;childLayout=tableLayout;fixedRows=1;rowLines=0;fontStyle=1;align=center;resizeLast=1;" vertex="1" parent="1">
          <mxGeometry x="590" y="210" width="205" height="120" as="geometry" />
        </mxCell>
        <mxCell id="AvvDkr2C4oICKI2uUngF-33" value="" style="shape=partialRectangle;collapsible=0;dropTarget=0;pointerEvents=0;fillColor=none;points=[[0,0.5],[1,0.5]];portConstraint=eastwest;top=0;left=0;right=0;bottom=1;" vertex="1" parent="AvvDkr2C4oICKI2uUngF-32">
          <mxGeometry y="30" width="205" height="30" as="geometry" />
        </mxCell>
        <mxCell id="AvvDkr2C4oICKI2uUngF-34" value="PK" style="shape=partialRectangle;overflow=hidden;connectable=0;fillColor=none;top=0;left=0;bottom=0;right=0;fontStyle=1;" vertex="1" parent="AvvDkr2C4oICKI2uUngF-33">
          <mxGeometry width="30" height="30" as="geometry">
            <mxRectangle width="30" height="30" as="alternateBounds" />
          </mxGeometry>
        </mxCell>
        <mxCell id="AvvDkr2C4oICKI2uUngF-35" value="section_no" style="shape=partialRectangle;overflow=hidden;connectable=0;fillColor=none;top=0;left=0;bottom=0;right=0;align=left;spacingLeft=6;fontStyle=5;" vertex="1" parent="AvvDkr2C4oICKI2uUngF-33">
          <mxGeometry x="30" width="175" height="30" as="geometry">
            <mxRectangle width="175" height="30" as="alternateBounds" />
          </mxGeometry>
        </mxCell>
        <mxCell id="AvvDkr2C4oICKI2uUngF-36" value="" style="shape=partialRectangle;collapsible=0;dropTarget=0;pointerEvents=0;fillColor=none;points=[[0,0.5],[1,0.5]];portConstraint=eastwest;top=0;left=0;right=0;bottom=0;" vertex="1" parent="AvvDkr2C4oICKI2uUngF-32">
          <mxGeometry y="60" width="205" height="30" as="geometry" />
        </mxCell>
        <mxCell id="AvvDkr2C4oICKI2uUngF-37" value="" style="shape=partialRectangle;overflow=hidden;connectable=0;fillColor=none;top=0;left=0;bottom=0;right=0;" vertex="1" parent="AvvDkr2C4oICKI2uUngF-36">
          <mxGeometry width="30" height="30" as="geometry">
            <mxRectangle width="30" height="30" as="alternateBounds" />
          </mxGeometry>
        </mxCell>
        <mxCell id="AvvDkr2C4oICKI2uUngF-38" value="" style="shape=partialRectangle;overflow=hidden;connectable=0;fillColor=none;top=0;left=0;bottom=0;right=0;align=left;spacingLeft=6;" vertex="1" parent="AvvDkr2C4oICKI2uUngF-36">
          <mxGeometry x="30" width="175" height="30" as="geometry">
            <mxRectangle width="175" height="30" as="alternateBounds" />
          </mxGeometry>
        </mxCell>
        <mxCell id="AvvDkr2C4oICKI2uUngF-39" value="" style="shape=partialRectangle;collapsible=0;dropTarget=0;pointerEvents=0;fillColor=none;points=[[0,0.5],[1,0.5]];portConstraint=eastwest;top=0;left=0;right=0;bottom=0;" vertex="1" parent="AvvDkr2C4oICKI2uUngF-32">
          <mxGeometry y="90" width="205" height="30" as="geometry" />
        </mxCell>
        <mxCell id="AvvDkr2C4oICKI2uUngF-40" value="" style="shape=partialRectangle;overflow=hidden;connectable=0;fillColor=none;top=0;left=0;bottom=0;right=0;" vertex="1" parent="AvvDkr2C4oICKI2uUngF-39">
          <mxGeometry width="30" height="30" as="geometry">
            <mxRectangle width="30" height="30" as="alternateBounds" />
          </mxGeometry>
        </mxCell>
        <mxCell id="AvvDkr2C4oICKI2uUngF-41" value="" style="shape=partialRectangle;overflow=hidden;connectable=0;fillColor=none;top=0;left=0;bottom=0;right=0;align=left;spacingLeft=6;" vertex="1" parent="AvvDkr2C4oICKI2uUngF-39">
          <mxGeometry x="30" width="175" height="30" as="geometry">
            <mxRectangle width="175" height="30" as="alternateBounds" />
          </mxGeometry>
        </mxCell>
        <mxCell id="AvvDkr2C4oICKI2uUngF-42" value="PROFESSOR" style="shape=table;startSize=30;container=1;collapsible=1;childLayout=tableLayout;fixedRows=1;rowLines=0;fontStyle=1;align=center;resizeLast=1;" vertex="1" parent="1">
          <mxGeometry x="590" y="410" width="205" height="120" as="geometry" />
        </mxCell>
        <mxCell id="AvvDkr2C4oICKI2uUngF-43" value="" style="shape=partialRectangle;collapsible=0;dropTarget=0;pointerEvents=0;fillColor=none;points=[[0,0.5],[1,0.5]];portConstraint=eastwest;top=0;left=0;right=0;bottom=1;" vertex="1" parent="AvvDkr2C4oICKI2uUngF-42">
          <mxGeometry y="30" width="205" height="30" as="geometry" />
        </mxCell>
        <mxCell id="AvvDkr2C4oICKI2uUngF-44" value="PK" style="shape=partialRectangle;overflow=hidden;connectable=0;fillColor=none;top=0;left=0;bottom=0;right=0;fontStyle=1;" vertex="1" parent="AvvDkr2C4oICKI2uUngF-43">
          <mxGeometry width="30" height="30" as="geometry">
            <mxRectangle width="30" height="30" as="alternateBounds" />
          </mxGeometry>
        </mxCell>
        <mxCell id="AvvDkr2C4oICKI2uUngF-45" value="professor_id" style="shape=partialRectangle;overflow=hidden;connectable=0;fillColor=none;top=0;left=0;bottom=0;right=0;align=left;spacingLeft=6;fontStyle=5;" vertex="1" parent="AvvDkr2C4oICKI2uUngF-43">
          <mxGeometry x="30" width="175" height="30" as="geometry">
            <mxRectangle width="175" height="30" as="alternateBounds" />
          </mxGeometry>
        </mxCell>
        <mxCell id="AvvDkr2C4oICKI2uUngF-46" value="" style="shape=partialRectangle;collapsible=0;dropTarget=0;pointerEvents=0;fillColor=none;points=[[0,0.5],[1,0.5]];portConstraint=eastwest;top=0;left=0;right=0;bottom=0;" vertex="1" parent="AvvDkr2C4oICKI2uUngF-42">
          <mxGeometry y="60" width="205" height="30" as="geometry" />
        </mxCell>
        <mxCell id="AvvDkr2C4oICKI2uUngF-47" value="" style="shape=partialRectangle;overflow=hidden;connectable=0;fillColor=none;top=0;left=0;bottom=0;right=0;" vertex="1" parent="AvvDkr2C4oICKI2uUngF-46">
          <mxGeometry width="30" height="30" as="geometry">
            <mxRectangle width="30" height="30" as="alternateBounds" />
          </mxGeometry>
        </mxCell>
        <mxCell id="AvvDkr2C4oICKI2uUngF-48" value="professor_name" style="shape=partialRectangle;overflow=hidden;connectable=0;fillColor=none;top=0;left=0;bottom=0;right=0;align=left;spacingLeft=6;" vertex="1" parent="AvvDkr2C4oICKI2uUngF-46">
          <mxGeometry x="30" width="175" height="30" as="geometry">
            <mxRectangle width="175" height="30" as="alternateBounds" />
          </mxGeometry>
        </mxCell>
        <mxCell id="AvvDkr2C4oICKI2uUngF-49" value="" style="shape=partialRectangle;collapsible=0;dropTarget=0;pointerEvents=0;fillColor=none;points=[[0,0.5],[1,0.5]];portConstraint=eastwest;top=0;left=0;right=0;bottom=0;" vertex="1" parent="AvvDkr2C4oICKI2uUngF-42">
          <mxGeometry y="90" width="205" height="30" as="geometry" />
        </mxCell>
        <mxCell id="AvvDkr2C4oICKI2uUngF-50" value="" style="shape=partialRectangle;overflow=hidden;connectable=0;fillColor=none;top=0;left=0;bottom=0;right=0;" vertex="1" parent="AvvDkr2C4oICKI2uUngF-49">
          <mxGeometry width="30" height="30" as="geometry">
            <mxRectangle width="30" height="30" as="alternateBounds" />
          </mxGeometry>
        </mxCell>
        <mxCell id="AvvDkr2C4oICKI2uUngF-51" value="professor_faculty" style="shape=partialRectangle;overflow=hidden;connectable=0;fillColor=none;top=0;left=0;bottom=0;right=0;align=left;spacingLeft=6;" vertex="1" parent="AvvDkr2C4oICKI2uUngF-49">
          <mxGeometry x="30" width="175" height="30" as="geometry">
            <mxRectangle width="175" height="30" as="alternateBounds" />
          </mxGeometry>
        </mxCell>
        <mxCell id="AvvDkr2C4oICKI2uUngF-52" value="ROSTER" style="shape=table;startSize=30;container=1;collapsible=1;childLayout=tableLayout;fixedRows=1;rowLines=0;fontStyle=1;align=center;resizeLast=1;" vertex="1" parent="1">
          <mxGeometry x="310" y="360" width="205" height="150" as="geometry" />
        </mxCell>
        <mxCell id="AvvDkr2C4oICKI2uUngF-53" value="" style="shape=partialRectangle;collapsible=0;dropTarget=0;pointerEvents=0;fillColor=none;points=[[0,0.5],[1,0.5]];portConstraint=eastwest;top=0;left=0;right=0;bottom=1;" vertex="1" parent="AvvDkr2C4oICKI2uUngF-52">
          <mxGeometry y="30" width="205" height="30" as="geometry" />
        </mxCell>
        <mxCell id="AvvDkr2C4oICKI2uUngF-54" value="PK, FK1" style="shape=partialRectangle;overflow=hidden;connectable=0;fillColor=none;top=0;left=0;bottom=0;right=0;fontStyle=1;" vertex="1" parent="AvvDkr2C4oICKI2uUngF-53">
          <mxGeometry width="50" height="30" as="geometry">
            <mxRectangle width="50" height="30" as="alternateBounds" />
          </mxGeometry>
        </mxCell>
        <mxCell id="AvvDkr2C4oICKI2uUngF-55" value="course_id" style="shape=partialRectangle;overflow=hidden;connectable=0;fillColor=none;top=0;left=0;bottom=0;right=0;align=left;spacingLeft=6;fontStyle=5;" vertex="1" parent="AvvDkr2C4oICKI2uUngF-53">
          <mxGeometry x="50" width="155" height="30" as="geometry">
            <mxRectangle width="155" height="30" as="alternateBounds" />
          </mxGeometry>
        </mxCell>
        <mxCell id="AvvDkr2C4oICKI2uUngF-56" value="" style="shape=partialRectangle;collapsible=0;dropTarget=0;pointerEvents=0;fillColor=none;points=[[0,0.5],[1,0.5]];portConstraint=eastwest;top=0;left=0;right=0;bottom=0;" vertex="1" parent="AvvDkr2C4oICKI2uUngF-52">
          <mxGeometry y="60" width="205" height="30" as="geometry" />
        </mxCell>
        <mxCell id="AvvDkr2C4oICKI2uUngF-57" value="PK, FK2" style="shape=partialRectangle;overflow=hidden;connectable=0;fillColor=none;top=0;left=0;bottom=0;right=0;fontStyle=1" vertex="1" parent="AvvDkr2C4oICKI2uUngF-56">
          <mxGeometry width="50" height="30" as="geometry">
            <mxRectangle width="50" height="30" as="alternateBounds" />
          </mxGeometry>
        </mxCell>
        <mxCell id="AvvDkr2C4oICKI2uUngF-58" value="section_no" style="shape=partialRectangle;overflow=hidden;connectable=0;fillColor=none;top=0;left=0;bottom=0;right=0;align=left;spacingLeft=6;" vertex="1" parent="AvvDkr2C4oICKI2uUngF-56">
          <mxGeometry x="50" width="155" height="30" as="geometry">
            <mxRectangle width="155" height="30" as="alternateBounds" />
          </mxGeometry>
        </mxCell>
        <mxCell id="AvvDkr2C4oICKI2uUngF-59" value="" style="shape=partialRectangle;collapsible=0;dropTarget=0;pointerEvents=0;fillColor=none;points=[[0,0.5],[1,0.5]];portConstraint=eastwest;top=0;left=0;right=0;bottom=0;" vertex="1" parent="AvvDkr2C4oICKI2uUngF-52">
          <mxGeometry y="90" width="205" height="30" as="geometry" />
        </mxCell>
        <mxCell id="AvvDkr2C4oICKI2uUngF-60" value="" style="shape=partialRectangle;overflow=hidden;connectable=0;fillColor=none;top=0;left=0;bottom=0;right=0;" vertex="1" parent="AvvDkr2C4oICKI2uUngF-59">
          <mxGeometry width="50" height="30" as="geometry">
            <mxRectangle width="50" height="30" as="alternateBounds" />
          </mxGeometry>
        </mxCell>
        <mxCell id="AvvDkr2C4oICKI2uUngF-61" value="" style="shape=partialRectangle;overflow=hidden;connectable=0;fillColor=none;top=0;left=0;bottom=0;right=0;align=left;spacingLeft=6;" vertex="1" parent="AvvDkr2C4oICKI2uUngF-59">
          <mxGeometry x="50" width="155" height="30" as="geometry">
            <mxRectangle width="155" height="30" as="alternateBounds" />
          </mxGeometry>
        </mxCell>
        <mxCell id="AvvDkr2C4oICKI2uUngF-80" value="" style="shape=tableRow;horizontal=0;startSize=0;swimlaneHead=0;swimlaneBody=0;fillColor=none;collapsible=0;dropTarget=0;points=[[0,0.5],[1,0.5]];portConstraint=eastwest;top=0;left=0;right=0;bottom=0;" vertex="1" parent="AvvDkr2C4oICKI2uUngF-52">
          <mxGeometry y="120" width="205" height="30" as="geometry" />
        </mxCell>
        <mxCell id="AvvDkr2C4oICKI2uUngF-81" value="" style="shape=partialRectangle;connectable=0;fillColor=none;top=0;left=0;bottom=0;right=0;editable=1;overflow=hidden;" vertex="1" parent="AvvDkr2C4oICKI2uUngF-80">
          <mxGeometry width="50" height="30" as="geometry">
            <mxRectangle width="50" height="30" as="alternateBounds" />
          </mxGeometry>
        </mxCell>
        <mxCell id="AvvDkr2C4oICKI2uUngF-82" value="" style="shape=partialRectangle;connectable=0;fillColor=none;top=0;left=0;bottom=0;right=0;align=left;spacingLeft=6;overflow=hidden;" vertex="1" parent="AvvDkr2C4oICKI2uUngF-80">
          <mxGeometry x="50" width="155" height="30" as="geometry">
            <mxRectangle width="155" height="30" as="alternateBounds" />
          </mxGeometry>
        </mxCell>
        <mxCell id="AvvDkr2C4oICKI2uUngF-62" value="REGISTER" style="shape=table;startSize=30;container=1;collapsible=1;childLayout=tableLayout;fixedRows=1;rowLines=0;fontStyle=1;align=center;resizeLast=1;" vertex="1" parent="1">
          <mxGeometry y="40" width="205" height="120" as="geometry" />
        </mxCell>
        <mxCell id="AvvDkr2C4oICKI2uUngF-63" value="" style="shape=partialRectangle;collapsible=0;dropTarget=0;pointerEvents=0;fillColor=none;points=[[0,0.5],[1,0.5]];portConstraint=eastwest;top=0;left=0;right=0;bottom=1;" vertex="1" parent="AvvDkr2C4oICKI2uUngF-62">
          <mxGeometry y="30" width="205" height="30" as="geometry" />
        </mxCell>
        <mxCell id="AvvDkr2C4oICKI2uUngF-64" value="PK, FK1" style="shape=partialRectangle;overflow=hidden;connectable=0;fillColor=none;top=0;left=0;bottom=0;right=0;fontStyle=1;" vertex="1" parent="AvvDkr2C4oICKI2uUngF-63">
          <mxGeometry width="50" height="30" as="geometry">
            <mxRectangle width="50" height="30" as="alternateBounds" />
          </mxGeometry>
        </mxCell>
        <mxCell id="AvvDkr2C4oICKI2uUngF-65" value="student_id" style="shape=partialRectangle;overflow=hidden;connectable=0;fillColor=none;top=0;left=0;bottom=0;right=0;align=left;spacingLeft=6;fontStyle=5;" vertex="1" parent="AvvDkr2C4oICKI2uUngF-63">
          <mxGeometry x="50" width="155" height="30" as="geometry">
            <mxRectangle width="155" height="30" as="alternateBounds" />
          </mxGeometry>
        </mxCell>
        <mxCell id="AvvDkr2C4oICKI2uUngF-66" value="" style="shape=partialRectangle;collapsible=0;dropTarget=0;pointerEvents=0;fillColor=none;points=[[0,0.5],[1,0.5]];portConstraint=eastwest;top=0;left=0;right=0;bottom=0;" vertex="1" parent="AvvDkr2C4oICKI2uUngF-62">
          <mxGeometry y="60" width="205" height="30" as="geometry" />
        </mxCell>
        <mxCell id="AvvDkr2C4oICKI2uUngF-67" value="PK, FK2" style="shape=partialRectangle;overflow=hidden;connectable=0;fillColor=none;top=0;left=0;bottom=0;right=0;fontStyle=1" vertex="1" parent="AvvDkr2C4oICKI2uUngF-66">
          <mxGeometry width="50" height="30" as="geometry">
            <mxRectangle width="50" height="30" as="alternateBounds" />
          </mxGeometry>
        </mxCell>
        <mxCell id="AvvDkr2C4oICKI2uUngF-68" value="course_id" style="shape=partialRectangle;overflow=hidden;connectable=0;fillColor=none;top=0;left=0;bottom=0;right=0;align=left;spacingLeft=6;fontStyle=1" vertex="1" parent="AvvDkr2C4oICKI2uUngF-66">
          <mxGeometry x="50" width="155" height="30" as="geometry">
            <mxRectangle width="155" height="30" as="alternateBounds" />
          </mxGeometry>
        </mxCell>
        <mxCell id="AvvDkr2C4oICKI2uUngF-69" value="" style="shape=partialRectangle;collapsible=0;dropTarget=0;pointerEvents=0;fillColor=none;points=[[0,0.5],[1,0.5]];portConstraint=eastwest;top=0;left=0;right=0;bottom=0;" vertex="1" parent="AvvDkr2C4oICKI2uUngF-62">
          <mxGeometry y="90" width="205" height="30" as="geometry" />
        </mxCell>
        <mxCell id="AvvDkr2C4oICKI2uUngF-70" value="" style="shape=partialRectangle;overflow=hidden;connectable=0;fillColor=none;top=0;left=0;bottom=0;right=0;" vertex="1" parent="AvvDkr2C4oICKI2uUngF-69">
          <mxGeometry width="50" height="30" as="geometry">
            <mxRectangle width="50" height="30" as="alternateBounds" />
          </mxGeometry>
        </mxCell>
        <mxCell id="AvvDkr2C4oICKI2uUngF-71" value="" style="shape=partialRectangle;overflow=hidden;connectable=0;fillColor=none;top=0;left=0;bottom=0;right=0;align=left;spacingLeft=6;" vertex="1" parent="AvvDkr2C4oICKI2uUngF-69">
          <mxGeometry x="50" width="155" height="30" as="geometry">
            <mxRectangle width="155" height="30" as="alternateBounds" />
          </mxGeometry>
        </mxCell>
        <mxCell id="AvvDkr2C4oICKI2uUngF-72" value="" style="edgeStyle=entityRelationEdgeStyle;fontSize=12;html=1;endArrow=ERmandOne;startArrow=ERmandOne;rounded=0;entryX=0;entryY=1;entryDx=0;entryDy=0;entryPerimeter=0;exitX=1;exitY=0.5;exitDx=0;exitDy=0;dashed=1;dashPattern=1 2;" edge="1" parent="1" source="C-vyLk0tnHw3VtMMgP7b-6" target="AvvDkr2C4oICKI2uUngF-3">
          <mxGeometry width="100" height="100" relative="1" as="geometry">
            <mxPoint x="390" y="230" as="sourcePoint" />
            <mxPoint x="490" y="130" as="targetPoint" />
          </mxGeometry>
        </mxCell>
        <mxCell id="AvvDkr2C4oICKI2uUngF-73" value="" style="edgeStyle=entityRelationEdgeStyle;fontSize=12;html=1;endArrow=ERoneToMany;startArrow=ERmandOne;rounded=0;exitX=1;exitY=0.5;exitDx=0;exitDy=0;entryX=0;entryY=0.5;entryDx=0;entryDy=0;" edge="1" parent="1" source="AvvDkr2C4oICKI2uUngF-13" target="AvvDkr2C4oICKI2uUngF-26">
          <mxGeometry width="100" height="100" relative="1" as="geometry">
            <mxPoint x="390" y="460" as="sourcePoint" />
            <mxPoint x="490" y="360" as="targetPoint" />
          </mxGeometry>
        </mxCell>
        <mxCell id="AvvDkr2C4oICKI2uUngF-74" value="" style="edgeStyle=entityRelationEdgeStyle;fontSize=12;html=1;endArrow=ERzeroToMany;startArrow=ERmandOne;rounded=0;exitX=0.561;exitY=0;exitDx=0;exitDy=0;exitPerimeter=0;entryX=0.478;entryY=1.067;entryDx=0;entryDy=0;entryPerimeter=0;" edge="1" parent="1" source="AvvDkr2C4oICKI2uUngF-42" target="AvvDkr2C4oICKI2uUngF-39">
          <mxGeometry width="100" height="100" relative="1" as="geometry">
            <mxPoint x="310" y="390" as="sourcePoint" />
            <mxPoint x="410" y="290" as="targetPoint" />
          </mxGeometry>
        </mxCell>
        <mxCell id="AvvDkr2C4oICKI2uUngF-78" value="" style="edgeStyle=entityRelationEdgeStyle;fontSize=12;html=1;endArrow=ERoneToMany;startArrow=ERmandOne;rounded=0;exitX=0;exitY=0.5;exitDx=0;exitDy=0;entryX=1;entryY=0.5;entryDx=0;entryDy=0;dashed=1;dashPattern=1 2;" edge="1" parent="1" source="AvvDkr2C4oICKI2uUngF-23" target="AvvDkr2C4oICKI2uUngF-66">
          <mxGeometry width="100" height="100" relative="1" as="geometry">
            <mxPoint x="310" y="280" as="sourcePoint" />
            <mxPoint x="410" y="180" as="targetPoint" />
          </mxGeometry>
        </mxCell>
        <mxCell id="AvvDkr2C4oICKI2uUngF-79" value="" style="edgeStyle=entityRelationEdgeStyle;fontSize=12;html=1;endArrow=ERoneToMany;startArrow=ERmandOne;rounded=0;exitX=0;exitY=0.5;exitDx=0;exitDy=0;entryX=1;entryY=0.5;entryDx=0;entryDy=0;dashed=1;dashPattern=1 2;" edge="1" parent="1" source="C-vyLk0tnHw3VtMMgP7b-3" target="AvvDkr2C4oICKI2uUngF-63">
          <mxGeometry width="100" height="100" relative="1" as="geometry">
            <mxPoint x="280" y="245" as="sourcePoint" />
            <mxPoint x="215" y="125" as="targetPoint" />
          </mxGeometry>
        </mxCell>
        <mxCell id="AvvDkr2C4oICKI2uUngF-83" value="" style="edgeStyle=entityRelationEdgeStyle;fontSize=12;html=1;endArrow=ERoneToMany;startArrow=ERmandOne;rounded=0;exitX=0.463;exitY=-0.013;exitDx=0;exitDy=0;dashed=1;dashPattern=1 2;exitPerimeter=0;entryX=0.634;entryY=1;entryDx=0;entryDy=0;entryPerimeter=0;" edge="1" parent="1" source="AvvDkr2C4oICKI2uUngF-52" target="AvvDkr2C4oICKI2uUngF-29">
          <mxGeometry width="100" height="100" relative="1" as="geometry">
            <mxPoint x="585" y="340" as="sourcePoint" />
            <mxPoint x="405" y="320" as="targetPoint" />
          </mxGeometry>
        </mxCell>
        <mxCell id="AvvDkr2C4oICKI2uUngF-84" value="" style="edgeStyle=entityRelationEdgeStyle;fontSize=12;html=1;endArrow=ERoneToMany;startArrow=ERmandOne;rounded=0;exitX=0;exitY=0.5;exitDx=0;exitDy=0;dashed=1;dashPattern=1 2;entryX=1.005;entryY=0.2;entryDx=0;entryDy=0;entryPerimeter=0;" edge="1" parent="1" source="AvvDkr2C4oICKI2uUngF-33" target="AvvDkr2C4oICKI2uUngF-56">
          <mxGeometry width="100" height="100" relative="1" as="geometry">
            <mxPoint x="415" y="368" as="sourcePoint" />
            <mxPoint x="500" y="240" as="targetPoint" />
          </mxGeometry>
        </mxCell>
      </root>
    </mxGraphModel>
  </diagram>
</mxfile>
